<svg width="112" height="30" viewBox="0 0 112 30" fill="none" xmlns="http://www.w3.org/2000/svg">
  <path d="M5.16685 8.10811C5.16685 4.86486 6.84908 3.56757 11.0146 3.56757C15.3003 3.56757 17.0626 5.14865 17.0626 8.91892H21.6287C21.6287 2.67567 18.4244 0 11.0146 0C3.56473 0 0.400531 2.67567 0.400531 8.87838C0.400531 19.0135 17.2228 14.6757 17.2228 21.8919C17.2228 25.0946 15.4605 26.4324 11.0146 26.4324C6.40849 26.4324 4.526 24.8919 4.526 21.0811H0C0 27.3243 3.28435 30 11.0146 30C18.7048 30 22.0292 27.3243 22.0292 21.1216C22.0292 10.3378 5.16685 14.3919 5.16685 8.10811Z" fill="white" />
  <path d="M46.1455 29.1892H51.4325L42.3004 0.81081H35.3312L25.7185 29.1892H30.7651L32.8479 22.8243H44.1429L46.1455 29.1892ZM38.5755 5.27027L43.0214 19.2568H34.0094L38.5755 5.27027Z" fill="white" />
  <path d="M69.7127 16.7432H77.9236C77.9236 23.2297 75.5204 25.9054 69.7127 25.9054C63.6647 25.9054 61.1413 22.7027 61.1413 15C61.1413 7.2973 63.6647 4.09459 69.7127 4.09459C74.2788 4.09459 76.6018 5.75676 77.523 9.72973H82.3294C80.9676 2.91892 77.2026 0 69.7127 0C60.0199 0 55.8944 4.5 55.8944 15C55.8944 25.5 60.0199 30 69.7127 30C78.8048 30 82.73 25.5 82.73 15V13.1757H69.7127V16.7432Z" fill="white" />
  <path d="M89.1697 18.8108C89.1697 26.6351 92.5742 30 100.585 30C108.555 30 112 26.6351 112 18.8108V0.81081H106.953V18.8108C106.953 23.7973 105.071 25.9054 100.585 25.9054C96.0589 25.9054 94.1764 23.7973 94.1764 18.8108V0.81081H89.1697V18.8108Z" fill="white" />
</svg>
