<svg width="396" height="281" viewBox="0 0 396 281" fill="none" xmlns="http://www.w3.org/2000/svg">
<path opacity="0.1" d="M132.42 281C155.813 281 174.777 278.006 174.777 274.312C174.777 270.618 155.813 267.624 132.42 267.624C109.027 267.624 90.0637 270.618 90.0637 274.312C90.0637 278.006 109.027 281 132.42 281Z" fill="#FF5348"/>
<path opacity="0.1" d="M320.679 281C344.685 281 364.145 278.494 364.145 275.402C364.145 272.31 344.685 269.803 320.679 269.803C296.673 269.803 277.213 272.31 277.213 275.402C277.213 278.494 296.673 281 320.679 281Z" fill="#FF5348"/>
<path opacity="0.1" d="M4.94754 121.98H41.2284V171.463H7.60363C7.51426 171.971 7.42847 172.483 7.33552 172.994H41.2284V212.901C41.1676 212.883 41.114 212.862 41.0568 212.84C40.0987 212.461 39.1478 212.061 38.1969 211.631L37.5892 211.356C36.6359 210.905 35.6826 210.428 34.7294 209.925C34.3969 209.75 34.0644 209.567 33.7356 209.381C28.4433 206.415 23.6356 202.656 19.4792 198.235C19.3576 198.117 19.2432 197.992 19.1217 197.877C18.5426 197.248 17.9742 196.611 17.4237 195.96L16.8159 195.244C16.1653 194.447 15.5362 193.627 14.9249 192.798C14.8355 192.676 14.7497 192.554 14.6568 192.44C12.1706 188.99 10.1064 185.256 8.50806 181.315C8.45801 181.197 8.41512 181.068 8.36864 180.957C7.8777 179.693 7.44277 178.417 7.06384 177.129C6.89939 176.589 6.7421 176.056 6.60626 175.495C6.55621 175.33 6.51331 175.169 6.47399 175.008C4.44349 167.078 4.20398 158.839 4.20398 150.658C4.20398 149.703 4.20398 148.745 4.20398 147.797C4.20398 144.488 4.2433 141.157 4.3005 137.831C4.3005 136.969 4.33625 136.11 4.35412 135.244C4.40417 133.048 4.47567 130.852 4.56861 128.655C4.59006 128.043 4.61866 127.435 4.65083 126.827C4.65083 126.477 4.66871 126.126 4.70445 125.776C4.79025 124.502 4.86175 123.239 4.94754 121.98Z" fill="#FF5348"/>
<path opacity="0.1" d="M41.2284 66.8845H21.3274C24.5624 61.8177 28.0971 56.9488 31.9124 52.3039C34.8688 48.6695 37.9896 45.1281 41.2284 41.7154V66.8845Z" fill="#FF5348"/>
<path opacity="0.1" d="M41.2285 68.4155V120.449H5.06201C5.06201 120.299 5.08703 120.145 5.09776 119.995C5.12993 119.583 5.16211 119.172 5.19785 118.764C5.23718 118.285 5.28007 117.802 5.32655 117.333C5.37302 116.865 5.42307 116.292 5.47669 115.774C5.53031 115.255 5.58036 114.729 5.64113 114.211C5.7019 113.692 5.75553 113.173 5.81987 112.658C5.88422 112.143 5.94142 111.621 6.00934 111.106C6.06296 110.676 6.12016 110.251 6.17735 109.821C6.25957 109.217 6.34537 108.609 6.43832 108.008C6.43832 107.918 6.46334 107.825 6.47764 107.739C7.13011 103.34 8.01915 98.9791 9.14088 94.6756C10.3151 90.1611 11.8145 85.7377 13.6273 81.44C15.554 76.9441 17.8099 72.5967 20.3765 68.4334L41.2285 68.4155Z" fill="#FF5348"/>
<path opacity="0.1" d="M49.8901 121.977V171.463H127.382V121.977H49.8901ZM49.8901 172.991V215.488C50.3334 215.581 50.7731 215.67 51.2092 215.745C51.8027 215.86 52.3925 215.963 52.9967 216.053C53.1111 216.071 53.229 216.089 53.3541 216.099C53.5901 216.139 53.8332 216.171 54.0691 216.203C54.6661 216.285 55.2595 216.353 55.8565 216.407C56.1389 216.436 56.4249 216.461 56.7109 216.482L57.4008 216.536C57.7762 216.564 58.148 216.586 58.5162 216.597C58.745 216.597 58.9738 216.618 59.2097 216.625C59.3884 216.625 59.5672 216.625 59.7531 216.625C59.939 216.625 60.2035 216.625 60.4287 216.625C60.7361 216.625 61.0436 216.625 61.3474 216.625H61.7585C62.066 216.625 62.3734 216.625 62.6773 216.597H62.6987C62.9096 216.597 63.1241 216.597 63.3386 216.568C63.3981 216.571 63.4578 216.571 63.5173 216.568C63.6961 216.568 63.8748 216.568 64.0464 216.543H64.1715L65.3691 216.45C65.7623 216.414 66.1591 216.368 66.5595 216.325L67.3746 216.228C70.6905 215.763 73.9696 215.065 77.1875 214.139C84.4157 212.121 91.4867 209.299 98.7115 207.231C108.052 204.566 118.373 203.257 127.399 206.516V172.991H49.8901ZM127.382 66.8845V1.00358C118.898 0.911599 110.437 1.90455 102.204 3.95833C82.5819 8.89125 64.9759 19.5906 49.8901 33.2554V66.8809H53.7795V68.4083H49.8901V120.449H127.382V68.4119H69.7483V66.8845H127.382ZM226.915 44.6308C222.061 44.4591 217.235 42.9209 212.87 40.5457C204.523 36.0027 197.856 28.9878 190.406 23.0676C174.927 10.7371 155.73 3.29655 136.036 1.45072V66.8845H246.659L246.934 66.5947L226.915 44.6308ZM236.993 42.8423L247.678 54.5754V39.7659C244.099 40.2094 240.964 41.2647 237.007 42.8279L236.993 42.8423ZM247.678 226.04V172.991H224.91C224.849 172.765 224.788 172.536 224.717 172.307C224.785 172.536 224.842 172.765 224.906 172.991H136.05V211.356C136.894 211.982 137.727 212.64 138.553 213.309C139.443 214.025 140.322 214.779 141.205 215.52L142.095 216.257C142.521 216.614 142.95 216.972 143.382 217.308C144.24 218.005 145.107 218.692 145.981 219.369C146.414 219.727 146.857 220.048 147.297 220.385C154.277 225.725 161.641 230.545 169.328 234.804C171.052 235.758 172.79 236.69 174.544 237.598C175.713 238.196 176.889 238.789 178.069 239.365C179.842 240.231 181.629 241.066 183.431 241.869C200.042 249.331 217.607 254.451 235.623 257.083C239.625 257.674 243.642 258.139 247.674 258.478V226.037H248.032L247.678 226.04ZM136.05 68.4119V120.449H247.692V68.4119H136.05ZM136.05 121.977V171.463H247.692V121.977H136.05ZM256.357 39.7015V56.2209L269.995 41.2468C265.477 40.5171 260.931 39.996 256.357 39.6836V39.7015ZM256.357 121.994V171.463H364.943V121.977L256.357 121.994ZM364.546 229.968L364.928 172.991H256.357V259.047C263.352 259.341 270.356 259.257 277.342 258.796H277.463C280.8 258.587 284.121 258.281 287.426 257.881H287.501C305.136 255.827 322.38 251.223 338.693 244.212L364.546 229.968ZM385.88 130.125C385.473 129.163 385.047 128.208 384.615 127.264C383.807 125.475 382.953 123.737 382.073 121.998H373.601V171.463H395.021C395.01 157.455 391.468 143.146 385.891 130.107L385.88 130.125ZM373.601 173.009V222.016C379.635 216.228 384.733 209.607 388.404 202.037C392.819 192.923 394.839 183.053 395.003 173.001L373.601 173.009ZM373.601 107.575V120.453H381.28C378.957 116.02 376.397 111.715 373.612 107.557L373.601 107.575ZM299.96 49.41C299.395 49.1953 298.83 48.9771 298.262 48.7661C292.267 46.5508 286.141 44.7086 279.919 43.2501L259.049 66.169L258.649 66.5947L258.917 66.888H333.195C322.85 59.7625 311.697 53.8895 299.97 49.3921L299.96 49.41ZM335.372 68.4298H257.88L256.357 69.8249V120.449H269.706H269.727H364.957V95.9276C356.342 85.5022 346.4 76.2515 335.382 68.4119L335.372 68.4298Z" fill="#FF5348"/>
<path opacity="0.1" d="M41.2285 94.6612V120.449H5.06201C5.06201 120.299 5.08703 120.145 5.09776 119.995C5.12993 119.583 5.16211 119.172 5.19785 118.764C5.23718 118.285 5.28007 117.802 5.32655 117.333C5.37302 116.865 5.42307 116.292 5.47669 115.774C5.53031 115.255 5.58036 114.729 5.64113 114.211C5.7019 113.692 5.75553 113.173 5.81987 112.658C5.88422 112.143 5.94142 111.621 6.00934 111.106C6.06296 110.676 6.12016 110.251 6.17735 109.821C6.25957 109.217 6.34537 108.609 6.43832 108.008C6.43832 107.918 6.46334 107.825 6.47764 107.739C7.13011 103.34 8.01915 98.9791 9.14088 94.6756L41.2285 94.6612Z" fill="#FF5348"/>
<path opacity="0.1" d="M4.94754 121.98H41.2284V171.463H7.60363C7.51426 171.971 7.42847 172.483 7.33552 172.994H41.2284V212.901C41.1676 212.883 41.114 212.862 41.0568 212.84C40.0987 212.461 39.1478 212.061 38.1969 211.631L37.5892 211.356C36.6359 210.905 35.6826 210.428 34.7294 209.925C34.3969 209.75 34.0644 209.567 33.7356 209.381C28.4433 206.415 23.6356 202.656 19.4792 198.235C19.3576 198.117 19.2432 197.992 19.1217 197.877C18.5426 197.248 17.9742 196.611 17.4237 195.96L16.8159 195.244C16.1653 194.447 15.5362 193.627 14.9249 192.798C14.8355 192.676 14.7497 192.554 14.6568 192.44C12.1706 188.99 10.1064 185.256 8.50806 181.315C8.45801 181.197 8.41512 181.068 8.36864 180.957C7.8777 179.693 7.44277 178.417 7.06384 177.129C6.89939 176.589 6.7421 176.056 6.60626 175.495C6.55621 175.33 6.51331 175.169 6.47399 175.008C4.44349 167.078 4.20398 158.839 4.20398 150.658C4.20398 149.703 4.20398 148.745 4.20398 147.797C4.20398 144.488 4.2433 141.157 4.3005 137.831C4.3005 136.969 4.33625 136.11 4.35412 135.244C4.40417 133.048 4.47567 130.852 4.56861 128.655C4.59006 128.043 4.61866 127.435 4.65083 126.827C4.65083 126.477 4.66871 126.126 4.70445 125.776C4.79025 124.502 4.86175 123.239 4.94754 121.98Z" fill="#FF5348"/>
<path opacity="0.1" d="M77.1696 75.8632V120.449H49.8901V75.8632H53.7795V60.7675H69.7447V75.8632H77.1696Z" fill="#FF5348"/>
<path opacity="0.1" d="M77.1697 121.977H49.8938V171.46H77.1697V121.977Z" fill="#FF5348"/>
<path opacity="0.1" d="M49.8901 172.994H77.1696V214.132C73.9517 215.057 70.6726 215.754 67.3567 216.217L66.5416 216.317C66.1413 216.364 65.7445 216.403 65.3512 216.443C64.958 216.482 64.5505 216.511 64.1537 216.536H64.0285C63.857 216.536 63.6711 216.557 63.503 216.561H63.3207C63.1062 216.561 62.8918 216.582 62.6773 216.589C62.3734 216.607 62.0695 216.611 61.7585 216.614C61.6263 216.614 61.5011 216.614 61.3689 216.614C61.0614 216.614 60.7576 216.614 60.4501 216.614H59.7745C59.5922 216.614 59.417 216.614 59.2276 216.614L58.5376 216.589C58.1801 216.589 57.7941 216.55 57.4223 216.525L56.7359 216.475L55.8815 216.396C55.281 216.343 54.684 216.275 54.0941 216.192L53.3792 216.092L53.0217 216.042C52.4247 215.949 51.8348 215.849 51.2343 215.734C50.7946 215.659 50.3584 215.566 49.9152 215.477L49.8901 172.994Z" fill="#FF5348"/>
<path opacity="0.1" d="M247.692 70.5976H225.199V120.446H247.692V70.5976Z" fill="#FF5348"/>
<path opacity="0.1" d="M247.696 121.977V171.463H136.051V150.118H195.518V162.71H225.199V121.977H247.696Z" fill="#FF5348"/>
<path opacity="0.1" d="M248.05 226.051H247.692V258.514C243.665 258.173 239.649 257.709 235.645 257.122C217.619 254.482 200.047 249.351 183.431 241.876C178.634 239.716 173.934 237.357 169.332 234.801C161.645 230.539 154.28 225.72 147.297 220.381C145.543 219.036 143.811 217.66 142.103 216.253C140.919 215.277 139.743 214.275 138.553 213.302C137.727 212.633 136.894 211.975 136.051 211.345V172.994H224.903C224.842 172.765 224.781 172.536 224.717 172.311C224.785 172.536 224.849 172.765 224.91 172.994H247.692V226.03C247.814 226.033 247.932 226.044 248.05 226.051Z" fill="#FF5348"/>
<path opacity="0.1" d="M306.355 66.8845H291.698V62.3271H298.269V48.7517C298.838 48.9592 299.405 49.1727 299.97 49.3921V62.3271H306.355V66.8845Z" fill="#FF5348"/>
<path opacity="0.1" d="M341.667 120.449H269.713C269.713 120.449 269.713 120.449 269.738 120.467L269.706 120.449H256.357V70.6011H260.14V107.446H277.424V85.6253H291.702V68.4155H306.358V85.6396H320.636V107.46H341.667V120.449Z" fill="#FF5348"/>
<path opacity="0.1" d="M256.357 121.977V171.463H341.667V121.977H256.357ZM364.825 229.714L364.943 190.544H341.667V173.016H256.357V259.047C263.352 259.341 270.356 259.257 277.342 258.796H277.463C280.8 258.587 284.121 258.281 287.426 257.881H287.501C305.136 255.827 322.38 251.223 338.693 244.212" fill="#FF5348"/>
<path opacity="0.1" d="M375.117 172.994H395.018C394.842 183.043 392.826 192.912 388.415 202.027C384.744 209.6 379.642 216.221 373.615 222.005V190.526H375.117V172.994Z" fill="#FF5348"/>
<path opacity="0.1" d="M395.028 171.463H375.116V130.107H385.891C391.468 143.146 395.01 157.455 395.028 171.463Z" fill="#FF5348"/>
<path opacity="0.1" d="M247.696 84.4556H235.645V100.084H247.696V84.4556Z" fill="#FF5348"/>
<path opacity="0.1" d="M247.696 116.85H235.645V120.449H247.696V116.85Z" fill="#FF5348"/>
<path opacity="0.1" d="M247.696 121.977H235.645V132.476H247.696V121.977Z" fill="#FF5348"/>
<path opacity="0.1" d="M247.696 149.245H235.645V164.874H247.696V149.245Z" fill="#FF5348"/>
<path opacity="0.1" d="M247.696 181.64H235.645V197.269H247.696V181.64Z" fill="#FF5348"/>
<path opacity="0.1" d="M247.692 226.03C247.814 226.03 247.932 226.03 248.05 226.051H247.692V229.682H235.645V214.035H247.692V226.03Z" fill="#FF5348"/>
<path opacity="0.1" d="M247.692 246.423V258.496C243.665 258.155 239.649 257.691 235.645 257.104V246.423H247.692Z" fill="#FF5348"/>
<path opacity="0.1" d="M187.696 170.315H136.051V171.463H187.696V170.315Z" fill="#FF5348"/>
<path opacity="0.1" d="M187.696 172.991H136.051V177.391H187.696V172.991Z" fill="#FF5348"/>
<path opacity="0.1" d="M187.696 191.814H136.051V198.889H187.696V191.814Z" fill="#FF5348"/>
<path opacity="0.1" d="M187.692 213.313V220.388H147.297C145.543 219.048 143.81 217.672 142.099 216.26C140.916 215.284 139.743 214.282 138.549 213.313H187.692Z" fill="#FF5348"/>
<path opacity="0.1" d="M187.692 234.808V241.876H183.428C178.635 239.713 173.936 237.354 169.332 234.797L187.692 234.808Z" fill="#FF5348"/>
<path opacity="0.1" d="M287.512 126.774H277.345V136.947H287.512V126.774Z" fill="#FF5348"/>
<path opacity="0.1" d="M67.3818 79.3724H57.215V89.5459H67.3818V79.3724Z" fill="#FF5348"/>
<path opacity="0.1" d="M67.3818 103.003H57.215V113.177H67.3818V103.003Z" fill="#FF5348"/>
<path opacity="0.1" d="M67.3818 126.634H57.215V136.808H67.3818V126.634Z" fill="#FF5348"/>
<path opacity="0.1" d="M67.3818 150.261H57.215V160.435H67.3818V150.261Z" fill="#FF5348"/>
<path opacity="0.1" d="M67.3818 173.892H57.215V184.066H67.3818V173.892Z" fill="#FF5348"/>
<path opacity="0.1" d="M67.3818 197.523H57.215V207.696H67.3818V197.523Z" fill="#FF5348"/>
<path opacity="0.1" d="M326.324 126.774H316.157V136.947H326.324V126.774Z" fill="#FF5348"/>
<path opacity="0.1" d="M287.512 151.867H277.345V162.041H287.512V151.867Z" fill="#FF5348"/>
<path opacity="0.1" d="M326.324 151.867H316.157V162.041H326.324V151.867Z" fill="#FF5348"/>
<path opacity="0.1" d="M287.512 176.958H277.345V187.131H287.512V176.958Z" fill="#FF5348"/>
<path opacity="0.1" d="M326.324 176.958H316.157V187.131H326.324V176.958Z" fill="#FF5348"/>
<path opacity="0.1" d="M287.512 202.052H277.345V212.225H287.512V202.052Z" fill="#FF5348"/>
<path opacity="0.1" d="M326.324 202.052H316.157V212.225H326.324V202.052Z" fill="#FF5348"/>
<path opacity="0.1" d="M287.512 227.146H277.345V237.319H287.512V227.146Z" fill="#FF5348"/>
<path opacity="0.1" d="M326.324 227.146H316.157V237.319H326.324V227.146Z" fill="#FF5348"/>
<path opacity="0.1" d="M277.345 258.796V252.236H287.508V257.863L277.345 258.796Z" fill="#FF5348"/>
<path opacity="0.1" d="M6.43469 107.732V113.552H41.2284V107.732H6.43469ZM9.90227 113.187H7.06386V108.09H9.92372L9.90227 113.187ZM13.3663 113.187H10.5064V108.09H13.3663V113.187ZM16.8231 113.187H13.9633V108.09H16.8231V113.187ZM20.2871 113.187H17.4308V108.09H20.2907L20.2871 113.187ZM23.7475 113.187H20.8877V108.09H23.7475V113.187ZM27.2115 113.187H24.3517V108.09H27.2115V113.187ZM30.6755 113.187H27.8157V108.09H30.6755V113.187ZM34.136 113.187H31.2761V108.09H34.136V113.187ZM37.5964 113.187H34.7365V108.09H37.5964V113.187ZM41.0568 113.187H38.197V108.09H41.0568V113.187Z" fill="#FF5348"/>
<path opacity="0.1" d="M6.43469 124.667V130.487H41.2284V124.667H6.43469ZM9.90227 130.118H7.06386V125.035H9.92372L9.90227 130.118ZM13.3663 130.118H10.5064V125.035H13.3663V130.118ZM16.8231 130.118H13.9633V125.035H16.8231V130.118ZM20.2871 130.118H17.4308V125.035H20.2907L20.2871 130.118ZM23.7475 130.118H20.8877V125.035H23.7475V130.118ZM27.2115 130.118H24.3517V125.035H27.2115V130.118ZM30.6755 130.118H27.8157V125.035H30.6755V130.118ZM34.136 130.118H31.2761V125.035H34.136V130.118ZM37.5964 130.118H34.7365V125.035H37.5964V130.118ZM41.0568 130.118H38.197V125.035H41.0568V130.118Z" fill="#FF5348"/>
<path opacity="0.1" d="M6.43469 141.608V147.439H41.2284V141.608H6.43469ZM9.90227 147.06H7.06386V141.973H9.92372L9.90227 147.06ZM13.3663 147.06H10.5064V141.973H13.3663V147.06ZM16.8231 147.06H13.9633V141.973H16.8231V147.06ZM20.2871 147.06H17.4308V141.973H20.2907L20.2871 147.06ZM23.7475 147.06H20.8877V141.973H23.7475V147.06ZM27.2115 147.06H24.3517V141.973H27.2115V147.06ZM30.6755 147.06H27.8157V141.973H30.6755V147.06ZM34.136 147.06H31.2761V141.973H34.136V147.06ZM37.5964 147.06H34.7365V141.973H37.5964V147.06ZM41.0568 147.06H38.197V141.973H41.0568V147.06Z" fill="#FF5348"/>
<path opacity="0.1" d="M6.43469 158.55V164.363H41.2284V158.55H6.43469ZM9.90227 164.001H7.06386V158.911H9.92372L9.90227 164.001ZM13.3663 164.001H10.5064V158.911H13.3663V164.001ZM16.8231 164.001H13.9633V158.911H16.8231V164.001ZM20.2871 164.001H17.4308V158.911H20.2907L20.2871 164.001ZM23.7475 164.001H20.8877V158.911H23.7475V164.001ZM27.2115 164.001H24.3517V158.911H27.2115V164.001ZM30.6755 164.001H27.8157V158.911H30.6755V164.001ZM34.136 164.001H31.2761V158.911H34.136V164.001ZM37.5964 164.001H34.7365V158.911H37.5964V164.001ZM41.0568 164.001H38.197V158.911H41.0568V164.001Z" fill="#FF5348"/>
<path opacity="0.1" d="M6.58484 175.488C6.72426 176.035 6.88155 176.582 7.04599 177.122V175.852H9.90584V180.939H8.37582C8.42229 181.057 8.46877 181.186 8.51524 181.297H41.2284V175.488H6.58484ZM13.377 180.939H10.5171V175.852H13.377V180.939ZM16.8338 180.939H13.974V175.852H16.8338V180.939ZM20.2978 180.939H17.4308V175.852H20.2907L20.2978 180.939ZM23.7583 180.939H20.8984V175.852H23.7583V180.939ZM27.2223 180.939H24.3624V175.852H27.2223V180.939ZM30.6863 180.939H27.8264V175.852H30.6863V180.939ZM34.1467 180.939H31.2868V175.852H34.1467V180.939ZM37.6071 180.939H34.7473V175.852H37.6071V180.939ZM41.0675 180.939H38.2077V175.852H41.0675V180.939Z" fill="#FF5348"/>
<path opacity="0.1" d="M14.6639 192.429C14.7533 192.544 14.8391 192.672 14.9321 192.787H16.8231V195.23C17.0269 195.473 17.2271 195.716 17.4344 195.945V192.772H20.2943V197.877H19.136C19.2504 197.995 19.3613 198.12 19.4935 198.235H41.2391V192.429H14.6639ZM23.7476 197.877H20.8877V192.794H23.7476V197.877ZM27.2116 197.877H24.3517V192.794H27.2116V197.877ZM30.6756 197.877H27.8157V192.794H30.6756V197.877ZM34.136 197.877H31.2761V192.794H34.136V197.877ZM37.5964 197.877H34.7365V192.794H37.5964V197.877ZM41.0568 197.877H38.197V192.794H41.0568V197.877Z" fill="#FF5348"/>
<path opacity="0.1" d="M33.7499 209.367C34.0752 209.553 34.4076 209.725 34.7437 209.911V209.732H37.6035V211.342L38.2113 211.624V209.732H41.0711V212.826C41.1259 212.853 41.1834 212.875 41.2427 212.891V209.367H33.7499Z" fill="#FF5348"/>
<path opacity="0.1" d="M269.713 120.449H269.734H269.713ZM247.692 226.026H248.05H247.692ZM224.717 172.307C224.785 172.536 224.842 172.765 224.906 172.991C224.849 172.765 224.788 172.536 224.717 172.307ZM269.713 120.438H269.734H269.713ZM53.7939 66.8737V68.4012H69.7627V66.8737H53.7939ZM247.692 226.026H248.05H247.692ZM224.717 172.307C224.785 172.536 224.842 172.765 224.906 172.991C224.849 172.765 224.788 172.536 224.717 172.307ZM269.713 120.438H269.734H269.713ZM247.692 226.015H248.05H247.692ZM224.717 172.307C224.785 172.536 224.842 172.765 224.906 172.991C224.849 172.765 224.788 172.536 224.717 172.307Z" fill="#FF5348"/>
<path d="M172.714 106.198C172.714 106.198 171.005 105.96 171.005 103.473C171.005 100.985 169.783 96.3404 169.783 96.3404C169.783 96.3187 168.724 88.2505 167.263 86.9679C165.802 85.6853 163.924 78.1544 163.924 78.1544C163.924 78.1544 163.603 74.0683 162.948 73.1887C162.294 72.309 161.409 70.1555 160.104 67.0833C158.799 64.0112 153.357 61.8836 153.357 61.8836C153.357 61.8836 143.517 56.1813 140.729 54.3224C140.476 54.1696 140.239 53.991 140.022 53.7894C139.537 53.1524 137.421 53.1394 137.421 53.1394C137.199 51.7442 136.987 50.1409 136.918 48.6893C136.918 48.5333 136.918 48.3773 136.896 48.2214C140.005 46.3849 142.347 43.4894 143.491 40.0665C143.543 39.9018 143.587 39.7285 143.634 39.5638C143.821 39.5025 143.992 39.403 144.138 39.2717C144.283 39.1404 144.4 38.9801 144.48 38.8012C144.732 38.2422 144.736 37.5879 145.048 37.068C145.412 36.4527 146.106 36.1234 146.653 35.6597C148.032 34.4898 148.387 32.5182 148.322 30.7243C148.279 29.2727 148.045 27.8081 148.136 26.3652L148.162 26.0012C148.188 25.7846 148.218 25.5679 148.257 25.3599C148.469 24.2853 148.933 23.2714 149.194 22.2054C149.454 21.1395 149.48 19.9392 148.873 19.0206C147.984 17.673 146.132 17.4044 144.506 17.2657C142.663 17.1097 141.015 17.3134 139.836 15.7838C139.284 14.9843 138.663 14.2347 137.98 13.5436C137.737 13.3183 135.378 11.8797 135.378 11.7843C133.076 10.7188 130.466 10.5188 128.028 11.221C126.805 11.5764 125.652 12.157 124.412 12.4473C121.736 13.0799 118.657 12.3953 116.385 13.9249C115.119 14.7915 114.36 16.1694 113.649 17.5127C113.071 18.6191 112.484 19.724 111.888 20.8275C110.93 22.6431 109.954 24.489 109.551 26.4995C109.466 26.937 109.414 27.3802 109.395 27.8255V27.8471C109.395 28.0075 109.395 28.1678 109.395 28.3281V28.5318C109.395 28.6834 109.395 28.8307 109.421 28.9651C109.447 29.0994 109.443 29.1427 109.456 29.2337C109.469 29.3247 109.49 29.5284 109.516 29.667C109.542 29.8057 109.594 30.0483 109.646 30.239C109.668 30.3213 109.698 30.3993 109.724 30.4773C109.768 30.6246 109.82 30.7676 109.876 30.9106C109.907 30.9843 109.937 31.0623 109.972 31.136C110.037 31.2876 110.115 31.4349 110.193 31.5693C110.227 31.6299 110.253 31.6863 110.288 31.7426C110.409 31.9441 110.542 32.138 110.687 32.3232C111.615 33.4802 112.981 34.2168 113.991 35.3001C113.991 35.3434 113.991 35.3867 113.991 35.4257C113.991 35.547 113.991 35.664 113.991 35.7854C114.045 38.2013 114.688 40.5675 115.866 42.6783C117.043 44.789 118.719 46.5803 120.747 47.8964C120.747 48.061 120.769 48.23 120.778 48.3947C120.862 49.6809 120.846 50.9717 120.73 52.2555C120.553 52.0477 120.332 51.8821 120.083 51.7711C119.834 51.6601 119.563 51.6065 119.29 51.6142C119.104 51.6051 118.917 51.6211 118.735 51.6618L118.696 51.6315V51.6705C117.742 51.9045 116.567 52.8968 115.444 55.7176C115.444 55.7176 112.027 59.5654 109.425 59.4051C106.823 59.2448 100.237 63.4089 100.237 63.4089C100.237 63.4089 93.8101 67.5773 92.4312 71.8237C91.6604 74.2317 90.7363 76.5879 89.6646 78.878L81.7204 95.2355L80.2548 108.213C80.2548 108.213 81.0657 113.985 80.9052 114.864C80.7448 115.744 84.2398 123.678 84.2398 123.678C84.2398 123.678 95.7875 143.952 100.505 144.992L100.844 144.754C101.045 144.859 101.26 144.939 101.481 144.992L102.452 144.308C102.511 145.071 102.486 145.838 102.379 146.596C101.728 148.598 102.622 161.662 103.758 164.223C104.894 166.784 104.49 200.361 104.49 200.361L104.33 203.325C104.33 203.325 104.33 203.42 104.369 203.585L104.33 204.287L104.447 204.347C104.569 205.287 104.529 206.241 104.33 207.168C103.922 208.468 103.758 212.142 103.758 212.142C103.758 212.142 100.51 232.889 102.049 237.058C103.589 241.226 104.898 245.793 104.898 245.793C104.898 245.793 106.524 250.993 104.976 251.881C103.428 252.77 99.0267 254.26 99.933 256.427C100.757 258.429 103.883 263.793 104.347 264.577L104.308 264.989L103.671 271.891C103.774 272.803 104.021 273.692 104.404 274.526C105.102 276.03 106.459 277.59 109.039 277.421C109.473 277.39 109.976 277.338 110.462 277.273C115.184 276.641 120.999 274.535 120.999 274.535C120.697 274.343 120.42 274.115 120.175 273.854C119.943 273.63 119.759 273.36 119.634 273.062C119.51 272.764 119.447 272.444 119.451 272.121C119.52 270.865 117.166 264.876 116.58 263.403C116.489 263.191 116.441 263.069 116.441 263.069C116.441 263.069 121.81 257.462 120.916 252.492C120.916 252.492 114.976 249.026 116.931 247.124C118.887 245.221 122.382 239.757 122.382 239.757C122.382 239.757 122.543 219.327 122.382 216.276C122.215 214.159 122.315 212.029 122.681 209.937C122.746 209.621 122.824 209.313 122.907 209.01C125.612 209.413 128.342 209.62 131.076 209.629C132.074 209.629 133.089 209.629 134.112 209.569C134.112 209.857 134.125 210.169 134.151 210.505C134.376 215.566 134.797 224.44 135.14 227.737C135.625 232.465 138.309 245.204 138.309 245.204C138.309 245.204 133.188 248.488 139.203 256.583C139.203 256.583 139.203 259.516 138.804 259.941C138.378 261.329 138.035 262.741 137.776 264.17C137.525 265.695 137.421 267.238 137.828 268.039C138.804 269.955 144.658 269.799 144.658 269.799L144.801 269.773C145.906 269.658 147.023 269.765 148.087 270.085C149.15 270.406 150.14 270.934 150.998 271.64C153.222 273.425 161.665 272.641 166.235 272.073C168.026 271.848 169.223 271.64 169.223 271.64C169.281 271.438 169.302 271.226 169.284 271.016C169.236 269.894 168.356 267.433 162.389 265.236C162.389 265.236 156.778 261.466 156.856 258.182H156.739H156.088C156.561 258.156 156.865 258.182 156.865 258.182C156.865 258.182 154.666 250.165 155.564 249.515C156.461 248.865 153.773 239.983 153.773 239.983C153.773 239.983 152.233 225.077 152.151 224.032C152.154 223.136 152.29 222.246 152.554 221.389L152.151 213.217C152.151 213.217 152.073 210.5 152.151 209.616C152.138 208.849 152.076 208.083 151.965 207.324C151.926 207.021 151.887 206.704 151.843 206.392C153.946 205.859 155.312 205.365 155.312 205.365L155.069 176.919C156.856 173.452 157.186 165.848 157.177 160.453C157.177 156.986 157.021 154.421 157.021 154.421L159.462 150.439C159.462 150.439 160.026 145.673 159.132 144.628C158.738 144.156 158.916 143.666 159.241 143.264C159.41 143.13 159.588 143.008 159.774 142.9C159.774 142.9 159.748 142.861 159.718 142.804C159.888 142.662 160.07 142.533 160.26 142.419C160.26 142.419 159.393 141.075 160.169 140.508C160.897 141.002 161.548 141.374 162.042 141.678C162.007 141.994 161.973 142.176 161.973 142.176L162.181 141.743C162.658 142.011 162.948 142.176 162.948 142.176C162.948 142.176 166.773 134.563 166.691 133.44C166.608 132.318 169.293 127.591 169.293 127.591C169.293 127.591 169.618 125.108 171.083 124.068C172.549 123.028 172.22 115.493 172.22 115.493C172.22 115.493 172.627 111.567 173.603 109.964C174.578 108.36 172.714 106.198 172.714 106.198ZM99.5341 102.857L99.6078 104.673C99.1741 103.975 98.8619 103.473 98.8619 103.473L99.5341 102.857Z" fill="url(#paint0_linear)"/>
<path d="M163.185 138.858L162.275 142.783C162.275 142.783 154.985 139.016 153.67 134.229C152.355 129.442 155.87 127.624 155.87 127.624L162.662 130.538L163.185 138.858Z" fill="white"/>
<path opacity="0.1" d="M163.185 138.858L162.275 142.783C162.275 142.783 154.985 139.016 153.67 134.229C152.355 129.442 155.87 127.624 155.87 127.624L162.662 130.538L163.185 138.858Z" fill="black"/>
<path d="M121.274 274.543C121.274 274.543 114.348 277.099 109.586 277.42C107.058 277.59 105.729 276.034 105.045 274.534C104.672 273.7 104.431 272.813 104.331 271.904L104.95 265.014L105.279 261.346L115.395 258.707L116.828 263.106L116.962 263.441C117.538 264.91 119.845 270.887 119.776 272.135C119.773 272.454 119.835 272.771 119.957 273.066C120.079 273.361 120.259 273.628 120.486 273.852C120.718 274.115 120.983 274.347 121.274 274.543Z" fill="white"/>
<path d="M168.529 271.279C168.546 271.485 168.526 271.692 168.468 271.89C168.468 271.89 153.601 274.33 150.56 271.89C149.703 271.177 148.703 270.649 147.626 270.338C146.549 270.027 145.417 269.942 144.304 270.087C144.304 270.087 138.552 270.241 137.592 268.377C137.192 267.595 137.297 266.078 137.544 264.583C137.797 263.181 138.133 261.796 138.552 260.433L138.782 260.254L140.151 259.173L156.173 258.707H156.295C156.217 261.929 161.734 265.625 161.734 265.625C167.595 267.762 168.46 270.176 168.529 271.279Z" fill="white"/>
<path opacity="0.1" d="M168.53 271.173C168.546 271.392 168.524 271.611 168.465 271.822C168.465 271.822 153.601 274.415 150.559 271.822C149.702 271.065 148.704 270.504 147.627 270.174C146.55 269.844 145.419 269.753 144.307 269.906C144.307 269.906 138.55 270.069 137.594 268.09C137.194 267.254 137.294 265.647 137.542 264.057C139.758 264.289 143.256 264.866 144.629 266.241C146.705 268.335 150.225 270.424 152.384 270.587C154.075 270.701 164.185 271.037 168.53 271.173Z" fill="black"/>
<path opacity="0.1" d="M121.274 274.537C121.274 274.537 114.422 277.098 109.711 277.42C107.21 277.59 105.895 276.031 105.223 274.524C106.966 275.121 109.386 275.748 110.657 275.173C112.165 274.493 117.51 274.054 120.507 273.866C120.735 274.12 120.993 274.345 121.274 274.537Z" fill="black"/>
<path d="M131.814 69.1517C126.142 66.9081 118.845 59.495 120.667 56.0313C121.072 55.1572 121.312 54.2138 121.376 53.2497C121.493 51.941 121.511 50.625 121.428 49.3136C121.3 47.1658 121.046 45.0277 120.667 42.9108C120.667 42.9108 138.376 43.3176 137.344 45.9723C137.043 46.7507 136.996 48.1021 137.078 49.6154C137.16 51.1286 137.374 52.8386 137.598 54.2862C137.907 56.2718 138.217 57.785 138.217 57.785C138.217 57.785 137.134 59.3289 136.498 59.412C135.862 59.495 139.953 72.3487 131.814 69.1517Z" fill="#CF6F80"/>
<path opacity="0.1" d="M116.815 263.921L116.686 264.084C111.539 256.95 105.315 265.841 105.315 265.841L105.223 265.654L105.54 261.613L115.303 258.707L116.686 263.552L116.815 263.921Z" fill="black"/>
<path opacity="0.1" d="M156.943 259.109C156.943 259.109 153.012 259.039 150.915 260.605C148.819 262.17 138.685 260.944 139.122 260.605C139.251 260.436 139.329 260.244 139.349 260.043L140.725 259.109L156.833 258.707C156.895 258.954 156.943 259.109 156.943 259.109Z" fill="black"/>
<path d="M123.904 208.393C123.613 209.109 123.392 209.852 123.244 210.611C122.881 212.688 122.781 214.803 122.944 216.906C123.105 219.932 122.944 240.214 122.944 240.214C122.944 240.214 119.507 245.623 117.591 247.529C115.675 249.436 121.502 252.86 121.502 252.86C122.37 257.789 117.105 263.358 117.105 263.358C111.752 256.916 105.278 264.949 105.278 264.949C105.278 264.949 101.759 258.896 100.881 256.734C100.003 254.572 104.318 253.077 105.834 252.199C107.35 251.321 105.76 246.146 105.76 246.146C105.76 246.146 104.478 241.61 102.958 237.473C101.437 233.335 104.635 212.738 104.635 212.738C104.635 212.738 104.8 209.08 105.195 207.805C105.395 206.884 105.435 205.937 105.313 205.003C105.287 204.687 105.256 204.424 105.234 204.246C105.213 204.069 105.195 203.987 105.195 203.987L105.256 203.883L107.429 199.854C107.429 199.854 124.947 205.855 123.904 208.393Z" fill="#FF5348"/>
<path d="M156.943 258.751C156.943 258.751 152.902 258.669 150.747 260.481C148.592 262.293 138.176 260.879 138.625 260.481C139.074 260.083 139.038 257.138 139.038 257.138C132.927 249.103 138.14 245.842 138.14 245.842C138.14 245.842 135.41 233.192 134.916 228.5C134.571 225.222 134.144 216.413 133.915 211.383C133.816 209.221 133.758 207.733 133.758 207.733L138.75 206.764L139.392 206.639L151.434 204.312C151.434 204.312 151.766 206.474 151.991 208.243C152.102 208.998 152.165 209.76 152.179 210.522C152.098 211.387 152.179 214.095 152.179 214.095L152.588 222.212C152.321 223.063 152.183 223.948 152.179 224.837C152.26 225.871 153.827 240.67 153.827 240.67C153.827 240.67 156.552 249.501 155.623 250.136C154.693 250.772 156.943 258.751 156.943 258.751Z" fill="#FF5348"/>
<path opacity="0.1" d="M137.281 45.995C136.976 46.7792 136.928 48.1406 137.011 49.6651C134.607 51.1296 131.844 51.8784 129.039 51.8254C126.234 51.7724 123.501 50.9198 121.153 49.3655C121.024 47.2003 120.766 45.0449 120.382 42.9108C120.382 42.9108 138.326 43.3118 137.281 45.995Z" fill="black"/>
<path d="M144.452 36.7996C144.455 38.3827 144.204 39.9562 143.708 41.4607C142.598 44.8318 140.322 47.7052 137.282 49.5732C134.243 51.4412 130.635 52.1835 127.097 51.6688C123.559 51.1541 120.318 49.4157 117.948 46.7606C115.577 44.1056 114.229 40.705 114.142 37.1599C114.142 37.0369 114.142 36.9226 114.142 36.7996C114.108 34.8041 114.475 32.8218 115.221 30.9683C115.967 29.1148 117.078 27.4271 118.489 26.0039C119.9 24.5806 121.582 23.4502 123.438 22.6786C125.294 21.907 127.287 21.5096 129.299 21.5096C131.312 21.5096 133.304 21.907 135.16 22.6786C137.016 23.4502 138.699 24.5806 140.11 26.0039C141.521 27.4271 142.632 29.1148 143.378 30.9683C144.124 32.8218 144.491 34.8041 144.456 36.7996H144.452Z" fill="#CF6F80"/>
<path opacity="0.1" d="M131.814 69.1628C126.142 66.9687 118.845 59.7191 120.667 56.3317C121.072 55.4768 121.312 54.5543 121.376 53.6115L129.141 59.9629L133.945 63.8849L137.598 54.6294C137.907 56.5712 138.217 58.051 138.217 58.051C138.217 58.051 137.134 59.5608 136.498 59.6421C135.862 59.7234 139.953 72.2893 131.814 69.1628Z" fill="black"/>
<path d="M151.592 97.5656L145.157 207.32L136.764 207.879L115.032 144.238L118.597 68.6829L119.348 52.7197L129.011 60.7771L133.783 64.7473L137.515 55.1053L144.453 61.2447L151.592 97.5656Z" fill="#FF5348"/>
<path opacity="0.1" d="M123.904 208.341C123.613 209.056 123.393 209.797 123.245 210.554C117.031 209.6 110.995 207.725 105.34 204.992L105.223 204.932L105.262 204.237L105.284 203.875L107.453 199.854C107.453 199.854 124.946 205.808 123.904 208.341Z" fill="black"/>
<path opacity="0.1" d="M139.108 210.028C137.392 210.288 135.66 210.464 133.922 210.554C133.819 208.467 133.758 207.031 133.758 207.031L138.972 206.096L139.108 210.028Z" fill="black"/>
<path opacity="0.1" d="M151.592 207.654C148.429 208.335 143.544 209.1 139.171 208.622L139.108 206.29L151.041 204.312C151.041 204.312 151.37 206.132 151.592 207.654Z" fill="black"/>
<path opacity="0.1" d="M139.108 209.909C121.344 212.954 105.075 204.224 105.075 204.224L105.231 201.266C105.231 201.266 105.634 167.733 104.516 165.162C103.398 162.592 102.527 149.555 103.16 147.554C103.792 145.553 100.85 115.548 100.85 115.548L100.374 103.368L82.9299 96.2734L90.7289 79.9527C91.7823 77.6644 92.6882 75.3107 93.4412 72.9059C94.7973 68.6691 101.093 64.5063 101.093 64.5063C101.093 64.5063 107.549 60.3478 110.101 60.5044C112.653 60.661 115.997 56.8244 115.997 56.8244C118.467 50.504 120.703 53.3662 120.703 53.3662C120.703 53.6664 120.703 53.3663 120.581 54.3015C119.715 61.2395 134.594 83.1629 134.806 83.55L136.223 118.201L137.657 162.052L139.108 209.909Z" fill="black"/>
<path d="M139.108 209.91C121.348 212.954 105.078 204.225 105.078 204.225L105.238 201.268C105.238 201.268 105.641 167.74 104.519 165.17C103.397 162.599 102.531 149.565 103.168 147.564C103.805 145.564 100.859 115.563 100.859 115.563L100.378 103.386L82.9299 96.2662L90.7271 79.9482C91.7779 77.6593 92.6836 75.3061 93.4387 72.9025C94.7902 68.6665 101.089 64.5043 101.089 64.5043C101.089 64.5043 107.543 60.3465 110.09 60.5031C112.637 60.6597 115.985 56.8237 115.985 56.8237C118.459 50.5044 121.184 53.3661 121.184 53.3661C121.184 53.6662 120.924 53.801 121.062 54.3012C122.968 61.0293 134.595 83.1578 134.807 83.5449L136.241 118.19L137.674 162.034L139.108 209.91Z" fill="white"/>
<path opacity="0.1" d="M134.65 84.8217C132.671 84.0109 122.193 72.2591 122.193 72.2591V69.5845C121.811 68.7032 119.546 69.2408 117.707 69.8577L118.497 53.6115L119.394 54.3429C121.358 61.1551 134.421 84.4295 134.65 84.8217Z" fill="black"/>
<path d="M134.65 83.9299C132.772 83.1192 122.847 71.3674 122.847 71.3674V68.6928C122.486 67.8115 120.341 68.3491 118.599 68.966L119.351 52.7197L120.2 53.4512C122.066 60.2634 134.442 83.5422 134.65 83.9299Z" fill="white"/>
<path opacity="0.1" d="M105.321 141.364C105.563 141.364 117.86 140.108 117.86 140.108C117.86 140.108 125.306 154.322 124.818 157.78C124.33 161.239 123.446 164.3 120.45 163.758C117.455 163.216 104.331 164.185 104.331 164.185L105.321 141.364Z" fill="black"/>
<path d="M105.278 140.472C105.509 140.472 117.272 139.217 117.272 139.217C117.272 139.217 124.39 153.434 123.927 156.889C123.465 160.343 122.611 163.408 119.75 162.866C116.889 162.324 104.331 163.293 104.331 163.293L105.278 140.472Z" fill="white"/>
<path d="M114.466 133.866C114.466 133.866 125.489 139.548 125.725 141.283C125.962 143.018 120.115 140.525 118.852 140.224C118.021 140.032 117.175 139.905 116.322 139.845L107.898 140.063L114.466 133.866Z" fill="#CF6F80"/>
<path opacity="0.1" d="M131.083 84.8217C131.575 84.8217 131.974 84.4224 131.974 83.9299C131.974 83.4375 131.575 83.0382 131.083 83.0382C130.59 83.0382 130.191 83.4375 130.191 83.9299C130.191 84.4224 130.59 84.8217 131.083 84.8217Z" fill="black"/>
<path d="M131.083 84.8217C131.575 84.8217 131.974 84.2228 131.974 83.4841C131.974 82.7454 131.575 82.1465 131.083 82.1465C130.59 82.1465 130.191 82.7454 130.191 83.4841C130.191 84.2228 130.59 84.8217 131.083 84.8217Z" fill="#3F3D56"/>
<path opacity="0.1" d="M133.312 135.65C134.051 135.65 134.65 135.25 134.65 134.758C134.65 134.265 134.051 133.866 133.312 133.866C132.573 133.866 131.974 134.265 131.974 134.758C131.974 135.25 132.573 135.65 133.312 135.65Z" fill="black"/>
<path d="M133.312 135.65C134.051 135.65 134.65 135.051 134.65 134.312C134.65 133.573 134.051 132.975 133.312 132.975C132.573 132.975 131.974 133.573 131.974 134.312C131.974 135.051 132.573 135.65 133.312 135.65Z" fill="#3F3D56"/>
<path opacity="0.1" d="M132.42 110.682C133.159 110.682 133.758 110.083 133.758 109.344C133.758 108.605 133.159 108.006 132.42 108.006C131.682 108.006 131.083 108.605 131.083 109.344C131.083 110.083 131.682 110.682 132.42 110.682Z" fill="black"/>
<path d="M132.42 109.79C133.159 109.79 133.758 109.391 133.758 108.898C133.758 108.406 133.159 108.006 132.42 108.006C131.682 108.006 131.083 108.406 131.083 108.898C131.083 109.391 131.682 109.79 132.42 109.79Z" fill="#3F3D56"/>
<path d="M159.133 139.36C159.133 139.36 159.93 140.554 159.133 141.112C158.337 141.67 159.211 143.02 159.211 143.02C159.211 143.02 157.224 144.184 158.098 145.231C158.973 146.278 158.419 151.006 158.419 151.006L156.029 154.961C156.029 154.961 156.172 157.509 156.181 160.953C156.181 166.326 155.865 173.88 154.116 177.323L154.358 205.579C154.358 205.579 145.991 208.633 138.987 207.703L137.948 162.363C137.948 162.363 139.463 136.652 140.022 131.72C140.348 129.159 140.482 126.578 140.42 123.997C140.42 123.997 140.182 116.279 139.381 112.697C139.381 112.697 138.515 97.1785 138.429 92.8825C138.39 90.8275 138.498 84.8312 138.619 79.1292C138.753 72.895 138.905 67.0155 138.905 67.0155L137.325 54.5211C137.325 54.5211 138.905 54.3611 139.381 54.997C139.594 55.1962 139.826 55.3744 140.074 55.5292C142.801 57.3722 152.436 63.0396 152.436 63.0396C152.436 63.0396 157.769 65.1595 159.046 68.1966C160.323 71.2337 161.211 73.3882 161.83 74.2534C162.449 75.1187 162.786 79.1854 162.786 79.1854C162.786 79.1854 164.622 86.6699 166.055 87.9375C167.487 89.2052 168.535 97.2694 168.535 97.2694L155.873 107.22C155.873 107.22 154.761 123.772 154.523 124.413C154.285 125.053 159.133 139.36 159.133 139.36Z" fill="white"/>
<path d="M159.921 139.414C159.921 139.414 160.723 140.607 159.921 141.165C159.119 141.722 159.996 143.071 159.996 143.071C159.996 143.071 157.997 144.246 158.874 145.292C159.75 146.338 159.198 151.062 159.198 151.062L156.779 155.013C156.779 155.013 156.923 157.558 156.937 160.999C156.937 166.367 156.617 173.913 154.846 177.353L155.087 205.581C155.087 205.581 146.603 208.632 139.52 207.703L138.473 162.408C138.473 162.408 140.007 136.722 140.572 131.795C140.903 129.237 141.037 126.658 140.971 124.08C140.971 124.08 140.73 116.369 139.924 112.79C139.924 112.79 139.047 97.2872 138.955 92.9954C138.916 90.9425 139.03 84.9521 139.148 79.2556C139.284 73.0275 139.437 67.1538 139.437 67.1538L137.325 54.5032C137.325 54.5032 139.437 54.5032 139.924 55.1472C140.138 55.3484 140.373 55.5267 140.625 55.6788C143.386 57.52 153.146 63.1819 153.146 63.1819C153.146 63.1819 158.541 65.2997 159.833 68.3338C161.126 71.3679 162.025 73.5202 162.656 74.3847C163.287 75.2491 163.62 79.3118 163.62 79.3118C163.62 79.3118 165.478 86.789 166.929 88.0553C168.379 89.3217 169.427 97.3607 169.427 97.3607L156.608 107.301C156.608 107.301 155.482 123.838 155.236 124.477C154.991 125.117 159.921 139.414 159.921 139.414Z" fill="white"/>
<path opacity="0.1" d="M144.612 70.9024L145.707 74.2594L139.942 80.3631C140.071 74.0851 140.216 68.1558 140.216 68.1558L138.217 55.3949C138.217 55.3949 140.216 55.3949 140.676 56.0445C140.878 56.247 141.1 56.4254 141.34 56.5764L146.242 71.4431L144.612 70.9024Z" fill="black"/>
<path d="M144.427 70.0107L145.648 73.3677L139.246 79.4713C139.388 73.189 139.55 67.2641 139.55 67.2641L137.325 54.5032C137.325 54.5032 139.55 54.5032 140.056 55.1528C140.282 55.3546 140.529 55.5343 140.793 55.689L146.242 70.5513L144.427 70.0107Z" fill="white"/>
<path opacity="0.1" d="M144.452 36.6669C144.455 38.2362 144.204 39.796 143.708 41.2875C143.624 41.3003 143.539 41.2965 143.456 41.2763C143.374 41.2561 143.297 41.2199 143.229 41.1699C143.114 37.2504 141.152 33.5705 138.737 30.4393C138.06 29.4939 137.238 28.6567 136.301 27.957C135.354 27.2577 134.176 26.9301 132.996 27.0381C131.667 27.2167 130.493 28.1051 129.151 28.2183C127.379 28.362 125.793 27.1557 124.034 27.0947C123.319 27.1014 122.614 27.2579 121.966 27.5538C121.317 27.8497 120.74 28.2781 120.273 28.8106C119.349 29.8851 118.663 31.1368 118.258 32.4861C117.561 34.5323 117.182 36.6698 117.133 38.8269C117.11 40.0463 116.991 41.5749 115.839 42.0191C115.926 41.1223 115.822 40.2176 115.535 39.3623C115.247 38.5069 114.782 37.7196 114.169 37.0501L114.142 37.024C114.142 36.9021 114.142 36.7888 114.142 36.6669C114.108 34.6887 114.475 32.7236 115.221 30.8862C115.967 29.0487 117.078 27.3758 118.489 25.9649C119.9 24.554 121.582 23.4334 123.438 22.6684C125.294 21.9035 127.287 21.5096 129.299 21.5096C131.312 21.5096 133.304 21.9035 135.16 22.6684C137.016 23.4334 138.699 24.554 140.11 25.9649C141.521 27.3758 142.632 29.0487 143.378 30.8862C144.124 32.7236 144.491 34.6887 144.456 36.6669H144.452Z" fill="black"/>
<path d="M135.198 13.5365C132.944 12.5066 130.381 12.3119 127.989 12.9888C126.788 13.3342 125.656 13.8946 124.437 14.1768C121.835 14.7877 118.799 14.1263 116.565 15.605C115.325 16.4476 114.579 17.7789 113.885 19.0723L112.15 22.2826C111.205 24.0395 110.25 25.8258 109.856 27.7595C109.461 29.6933 109.699 31.8588 110.962 33.4134C111.881 34.5467 113.239 35.2587 114.236 36.3246C114.834 36.9729 115.287 37.7341 115.568 38.5606C115.848 39.3871 115.95 40.2609 115.867 41.1274C116.999 40.7061 117.107 39.2231 117.133 38.0435C117.182 35.9567 117.553 33.8888 118.235 31.9093C118.631 30.6036 119.303 29.3925 120.208 28.3536C120.666 27.8389 121.231 27.4247 121.866 27.1385C122.501 26.8523 123.191 26.7006 123.891 26.6936C125.626 26.7526 127.183 27.9154 128.9 27.7764C130.201 27.6711 131.355 26.8074 132.665 26.6389C133.82 26.5327 134.974 26.8498 135.9 27.5278C136.817 28.2037 137.621 29.0138 138.282 29.9292C140.65 32.9584 142.571 36.5099 142.684 40.3101C143.174 40.6597 143.881 40.2047 144.124 39.6655C144.367 39.1262 144.375 38.4943 144.683 37.9803C145.039 37.3862 145.72 37.0703 146.253 36.6237C147.606 35.4904 147.945 33.5819 147.893 31.8504C147.841 30.1188 147.494 28.362 147.832 26.6599C148.036 25.6151 148.496 24.6377 148.747 23.6055C148.999 22.5733 149.029 21.4148 148.435 20.5258C147.567 19.2198 145.741 18.9628 144.15 18.8406C142.341 18.6889 140.723 18.8827 139.57 17.404C139.028 16.6323 138.419 15.9078 137.748 15.2385C137.518 15.0194 135.198 13.6291 135.198 13.5365Z" fill="#512E4E"/>
<path opacity="0.1" d="M88.0338 104.708L83.4805 96.414L82.0382 109.211C82.0382 109.211 82.84 114.894 82.6787 115.766C82.5175 116.637 85.9641 124.45 85.9641 124.45C85.9641 124.45 97.3497 144.428 101.999 145.459L117.707 134.4L113.541 129.189C113.541 129.189 112.099 128.635 111.738 129.189C111.738 129.189 104.003 116.079 103.202 115.13C102.4 114.182 102.557 112.289 102.557 112.289C102.557 112.289 101.354 111.027 101.755 109.842C102.156 108.657 99.4325 104.549 99.4325 104.549L101.916 102.261L88.0338 104.708Z" fill="black"/>
<path d="M83.791 95.5223L82.5886 96.4657L81.1465 109.249C81.1465 109.249 81.9481 114.926 81.7869 115.797C81.6257 116.667 85.0763 124.472 85.0763 124.472C85.0763 124.472 96.4561 144.429 101.105 145.459L116.815 134.412L112.646 129.206C112.646 129.206 111.204 128.653 110.842 129.206C110.842 129.206 103.109 116.11 102.307 115.162C101.506 114.215 101.667 112.324 101.667 112.324C101.667 112.324 100.464 111.063 100.865 109.879C101.266 108.696 98.5387 104.592 98.5387 104.592L101.022 102.306L83.791 95.5223Z" fill="white"/>
<path opacity="0.1" d="M158.444 146.087C159.358 147.146 158.782 151.901 158.782 151.901L156.261 155.884C156.261 155.884 156.412 158.455 156.421 161.92L152.184 163.184C151.801 163.298 151.395 163.323 150.999 163.257C150.604 163.191 150.231 163.036 149.912 162.804C149.592 162.572 149.335 162.271 149.162 161.926C148.99 161.58 148.906 161.2 148.918 160.817L149.649 138.325L159.536 141.933C158.695 142.491 159.618 143.86 159.618 143.86C159.618 143.86 157.522 145.028 158.444 146.087Z" fill="black"/>
<path d="M158.543 145.185C159.379 146.243 158.852 150.999 158.852 150.999L156.542 154.979C156.542 154.979 156.681 157.544 156.693 161.011L152.739 162.295C152.395 162.406 152.031 162.431 151.677 162.366C151.322 162.301 150.988 162.149 150.701 161.922C150.415 161.695 150.184 161.401 150.029 161.063C149.874 160.725 149.799 160.353 149.81 159.979L150.484 137.433L159.547 141.039C158.773 141.596 159.618 142.96 159.618 142.96C159.618 142.96 157.706 144.131 158.543 145.185Z" fill="white"/>
<path d="M162.293 134.707C162.293 134.707 161.612 138.807 159.907 139.047C158.202 139.287 157.437 145.68 155.736 145.453C154.036 145.226 155.162 139.51 155.222 138.401C155.282 137.292 153.369 132.698 154.8 131.655C156.232 130.611 160.764 131.655 160.764 131.655L162.293 134.707Z" fill="#CF6F80"/>
<path opacity="0.1" d="M165.057 103.356L168.073 97.3057C168.073 97.3057 169.273 101.917 169.273 104.38C169.273 106.844 170.95 107.086 170.95 107.086C170.95 107.086 172.789 109.247 171.82 110.82C170.85 112.393 170.459 116.308 170.459 116.308C170.459 116.308 170.777 123.781 169.338 124.814C167.899 125.847 167.599 128.314 167.599 128.314C167.599 128.314 164.957 133.003 165.039 134.118C165.122 135.233 161.362 142.783 161.362 142.783C161.362 142.783 163.201 133.401 152.487 129.347C152.487 129.347 152.404 126.162 153.204 125.289C154.003 124.416 155.251 124.018 154.469 119.606C153.686 115.193 154.243 109.921 154.243 108.862C154.243 107.803 156.642 101.2 156.642 101.2L165.057 103.356Z" fill="black"/>
<path d="M166.332 96.414L168.964 97.2789C168.964 97.2789 170.167 101.893 170.167 104.358C170.167 106.823 171.843 107.065 171.843 107.065C171.843 107.065 173.68 109.227 172.712 110.801C171.743 112.375 171.357 116.293 171.357 116.293C171.357 116.293 171.674 123.77 170.236 124.803C168.799 125.837 168.477 128.306 168.477 128.306C168.477 128.306 165.841 132.998 165.924 134.113C166.006 135.229 162.246 142.783 162.246 142.783C162.246 142.783 164.087 133.395 153.378 129.339C153.378 129.339 153.3 126.152 154.099 125.279C154.898 124.405 156.144 124.007 155.362 119.592C154.581 115.177 155.137 109.901 155.137 108.842C155.137 107.783 157.534 101.175 157.534 101.175L166.332 96.414Z" fill="white"/>
<path opacity="0.1" d="M108.79 253.881C108.79 253.881 112.812 251.249 115.452 253.161C118.092 255.074 108.79 253.881 108.79 253.881Z" fill="black"/>
<path opacity="0.1" d="M140.892 245.358C140.892 245.358 144.899 244.811 148.264 248.654C151.629 252.497 140.892 245.358 140.892 245.358Z" fill="black"/>
<g opacity="0.1">
<path opacity="0.1" d="M146.492 35.9669C145.959 36.4265 145.274 36.756 144.919 37.3674C144.616 37.8921 144.607 38.5381 144.364 39.1018C144.122 39.6655 143.415 40.1251 142.926 39.7696C142.813 35.8672 140.889 32.2032 138.528 29.0813C137.867 28.1391 137.065 27.3054 136.149 26.6098C135.221 25.9121 134.067 25.5858 132.912 25.6949C131.612 25.8727 130.468 26.7572 129.155 26.8656C127.422 27.013 125.866 25.812 124.146 25.7513C123.447 25.7582 122.757 25.9146 122.124 26.21C121.49 26.5054 120.927 26.933 120.471 27.464C119.567 28.5316 118.895 29.7766 118.5 31.1192C117.819 33.1566 117.448 35.2847 117.399 37.4325C117.373 38.6422 117.261 40.1511 116.143 40.6021C116.169 40.9224 116.169 41.2443 116.143 41.5647C117.269 41.1311 117.382 39.6048 117.408 38.3907C117.456 36.243 117.827 34.1147 118.508 32.0775C118.904 30.7336 119.575 29.4871 120.48 28.4179C120.936 27.8883 121.5 27.462 122.133 27.1675C122.767 26.8729 123.456 26.7168 124.155 26.7095C125.888 26.7702 127.448 27.967 129.164 27.8239C130.464 27.7155 131.616 26.8266 132.92 26.6531C134.076 26.5441 135.23 26.8703 136.157 27.568C137.073 28.2636 137.876 29.0974 138.536 30.0396C140.898 33.1572 142.822 36.8124 142.934 40.7235C143.424 41.0834 144.13 40.6151 144.373 40.0601C144.616 39.5051 144.624 38.8547 144.928 38.3257C145.283 37.7143 145.968 37.3891 146.501 36.9295C147.853 35.7631 148.19 33.7989 148.138 32.0168C148.138 31.9604 148.138 31.9041 148.138 31.852C148.056 33.3956 147.645 34.9696 146.492 35.9669Z" fill="black"/>
<path opacity="0.1" d="M114.505 35.659C113.508 34.562 112.147 33.8292 111.233 32.6672C110.463 31.6385 110.024 30.4002 109.972 29.116C109.836 30.7207 110.284 32.3207 111.233 33.6211C112.147 34.7875 113.508 35.5203 114.505 36.6173C115.462 37.6903 116.036 39.0505 116.138 40.485C116.205 39.612 116.094 38.7345 115.813 37.9053C115.533 37.076 115.088 36.312 114.505 35.659Z" fill="black"/>
<path opacity="0.1" d="M148.984 22.5686C148.728 23.631 148.273 24.6412 148.065 25.7122C147.942 26.4279 147.897 27.1548 147.931 27.8802C147.945 27.467 147.99 27.0554 148.065 26.6488C148.273 25.5735 148.728 24.5675 148.984 23.5052C149.133 22.9193 149.181 22.3123 149.127 21.7101C149.1 21.9994 149.052 22.2863 148.984 22.5686Z" fill="black"/>
</g>
<path d="M357.364 169.743C357.364 169.743 351.462 140.36 353.721 136.704C353.721 136.704 353.803 133.305 353.668 128.974C353.668 128.809 353.668 128.644 353.668 128.476C354.065 128.741 354.48 128.98 354.908 129.192C356.99 130.262 359.38 130.571 361.665 130.065L359.877 128.072C359.448 127.596 359.001 127.081 358.908 126.452C358.815 125.822 359.073 125.26 359.294 124.699C360.992 120.406 361.082 115.008 357.811 111.732C355.048 108.977 354.375 105.421 351.376 102.907C349.185 101.064 347.98 98.3636 346.843 95.7523C345.882 93.5452 344.913 91.3202 344.362 88.9807C343.933 87.1527 343.762 85.2604 343.172 83.4754C342.582 81.6904 341.478 79.9555 339.751 79.1578C339.136 78.8752 338.453 78.7142 337.892 78.3386C337.156 77.8413 336.712 77.0329 336.18 76.3246C333.474 72.7475 324.411 74.8544 320.122 76.3067C318.955 76.6725 317.875 77.2712 316.947 78.0667L316.986 78.0023C317.019 77.9487 317.058 77.895 317.094 77.8414C316.624 78.2213 316.219 78.6742 315.893 79.1828C315.267 80.1737 315.006 81.3291 314.484 82.4023C313.855 83.6722 310.355 87.2171 311.86 88.6444C311.966 88.7403 312.086 88.8177 312.218 88.8734C312.783 89.1087 313.405 89.1709 314.005 89.0522L313.941 89.206C313.427 90.4653 313.163 91.8129 313.165 93.1731C313.165 99.0504 318.009 103.815 323.989 103.815C325.114 103.816 326.232 103.644 327.303 103.304C327.328 103.44 327.35 103.576 327.375 103.712C327.375 103.765 327.393 103.819 327.4 103.872L327.21 104.137C327.201 104.121 327.19 104.105 327.178 104.091L321.566 111.939C320.708 112.544 315.767 116.121 315.489 118.804C315.195 121.74 314.902 125.178 314.902 125.178L314.863 125.915C314.618 126.12 314.331 126.27 314.022 126.353C313.714 126.436 313.391 126.452 313.076 126.398C311.324 126.112 311.324 132.837 311.324 132.837C311.324 132.837 310.159 133.91 309.358 132.98C308.557 132.05 306.441 135.201 306.441 135.201L293.178 135.774L292.874 135.792L292.159 133.577C292.082 133.344 291.916 133.15 291.698 133.038C291.479 132.926 291.225 132.905 290.99 132.98C290.935 132.998 290.881 133.021 290.829 133.048L290.779 133.077L290.686 133.141L290.64 133.184C290.614 133.207 290.59 133.232 290.568 133.259L290.526 133.309L290.504 133.331C290.422 133.445 290.367 133.577 290.345 133.716C290.322 133.855 290.333 133.997 290.375 134.132L290.99 136.031C288.431 136.546 285.814 137.999 287.948 141.998L277.131 139.998L280.631 142.939L298.698 146.67C298.458 147.099 298.615 147.722 299.363 148.598C302.58 152.379 308.443 153.406 310.802 153.67C311.425 155.065 312.203 156.385 313.122 157.605L312.918 161.372C312.918 161.372 306.945 190.082 305.851 191.538C306.403 190.912 306.908 190.246 307.363 189.546C305.629 195.445 303.205 203.518 302.569 204.727C301.547 206.659 300.599 214.475 301.765 214.976C302.122 215.13 303.145 215.055 304.603 214.944V215.591L304.539 240.127C304.539 240.127 304.832 255.176 304.028 256.611C303.223 258.045 303.009 261.054 303.009 261.054C303.009 261.054 299.792 266.988 297.243 269.374C297.225 269.393 297.206 269.41 297.185 269.424L297.107 268.866C297.107 268.866 294.043 272.737 287.265 272.519C287.265 272.519 283.187 275.173 289.235 275.316C295.284 275.459 303.009 275.101 303.009 275.101C303.009 275.101 308.403 266.874 312.922 267.947V274.182H314.305V267.847C314.947 267.424 315.496 266.875 315.919 266.234C316.343 265.593 316.632 264.872 316.768 264.116C316.887 263.336 316.8 262.539 316.517 261.803C316.233 261.067 315.763 260.418 315.153 259.92C314.878 259.672 314.658 259.369 314.506 259.032C314.354 258.695 314.274 258.329 314.27 257.959L314.22 258.002C314.22 257.877 314.187 257.748 314.173 257.616C313.776 254.397 313.279 247.754 315.035 242.839C317.44 236.099 318.17 226.713 316.418 221.125C315.853 219.339 315.389 217.523 315.027 215.684C314.985 215.452 314.945 215.23 314.909 215.023C316.107 215.185 317.293 215.424 318.459 215.738C322.517 216.858 331.393 217.065 338.972 217.004C338.989 217.212 339.011 217.43 339.036 217.648C339.171 219.165 339.454 220.665 339.88 222.127C340.83 224.989 341.267 237.605 341.267 237.605C341.267 237.605 342.493 247.979 341.824 252.2C341.467 254.547 341.109 256.904 340.906 259.272V259.319C340.906 259.319 338.897 265.042 337.427 268.151C337.392 268.229 337.352 268.308 337.316 268.383C336.925 268.419 336.539 268.504 336.169 268.637C336.169 268.637 334.199 272.572 332.237 273.223C330.274 273.874 330.925 276.017 335.368 275.23C339.812 274.443 346.522 273.799 346.522 273.799L346.811 269.786L348.177 268.076L347.819 272.079L349.274 271.792L349.081 266.924L351.315 264.126C351.315 264.126 354.014 261.723 350.003 256.994V257.097C349.961 257.029 349.921 256.958 349.875 256.89V256.868C349.21 255.838 348.681 253.917 349.65 250.508C351.401 244.348 352.42 238.757 352.42 238.757C352.42 238.757 356.331 223.779 351.63 216.693H351.837C351.356 215.696 351.015 214.636 350.826 213.545C350.802 213.416 350.78 213.284 350.761 213.148C354.24 212.948 357.654 212.318 360.438 210.959C360.428 210.945 358.751 175.402 357.364 169.743ZM313.204 144.953V145.024L312.489 145.06L313.204 144.953ZM310.752 145.293C310.634 145.319 310.524 145.371 310.43 145.446C310.123 145.882 309.93 146.387 309.869 146.917L308.754 146.666C308.754 146.666 307.971 146.498 306.845 146.309L306.312 145.772C307.778 145.65 309.301 145.471 310.752 145.293Z" fill="url(#paint1_linear)"/>
<path d="M347.655 266.974L347.229 272.043L348.656 271.757L348.441 266.258L347.655 266.974Z" fill="#1D2366"/>
<path d="M315.113 242.907C313.394 247.807 313.88 254.422 314.266 257.634C314.409 258.821 314.541 259.544 314.541 259.544C314.541 259.544 311.971 265.403 311.756 265.625C311.542 265.847 304.192 270.336 304.192 270.336L299.055 273.338C299.055 273.338 293.843 271.052 296.342 270.265C296.852 270.06 297.312 269.746 297.69 269.346C300.192 266.967 303.334 261.054 303.334 261.054C303.334 261.054 303.549 258.052 304.335 256.625C305.122 255.198 304.836 240.199 304.836 240.199L304.896 215.749V212.561L314.674 212.633C314.735 213.715 314.876 214.791 315.095 215.852C315.446 217.684 315.901 219.495 316.457 221.275C318.18 226.852 317.465 236.192 315.113 242.907Z" fill="#FFB0B1"/>
<path opacity="0.1" d="M314.541 259.544C314.541 259.544 311.971 265.404 311.756 265.625C311.542 265.847 304.192 270.336 304.192 270.336L299.055 273.338C299.055 273.338 293.843 271.052 296.342 270.265C296.852 270.06 297.312 269.746 297.69 269.346L297.911 270.909L299.624 270.837L314.28 257.641C314.409 258.822 314.541 259.544 314.541 259.544Z" fill="black"/>
<path d="M314.362 257.974L299.623 271.259L297.911 271.331L297.554 268.827C297.554 268.827 294.558 272.683 287.902 272.468C287.902 272.468 283.905 275.112 289.828 275.255C295.752 275.398 303.316 275.04 303.316 275.04C303.316 275.04 308.6 266.813 313.022 267.886V274.1H314.38V267.829C315.012 267.403 315.551 266.854 315.965 266.215C316.379 265.576 316.66 264.859 316.79 264.109C316.907 263.335 316.824 262.545 316.548 261.813C316.272 261.081 315.812 260.433 315.213 259.93C314.946 259.679 314.732 259.376 314.586 259.04C314.44 258.703 314.364 258.341 314.362 257.974Z" fill="#1D2366"/>
<path d="M349.013 250.547C348.062 253.946 348.581 255.86 349.231 256.886V256.908C350.066 258.175 350.646 259.593 350.94 261.082L350.997 261.404L344.291 271.188L340.652 272.619C340.652 272.619 334.8 270.619 335.869 270.047C336.137 269.907 336.555 269.163 337.034 268.136C338.464 265.042 340.437 259.333 340.437 259.333V259.287C340.645 256.929 340.973 254.579 341.338 252.239C341.992 248.029 340.791 237.695 340.791 237.695C340.791 237.695 340.362 225.128 339.433 222.27C339.013 220.817 338.734 219.327 338.6 217.82C338.407 216.031 338.364 214.558 338.364 214.558C338.364 214.558 342.217 209.192 349.281 214.987C349.846 215.449 350.343 215.988 350.758 216.589C355.637 223.536 351.709 238.839 351.709 238.839C351.709 238.839 350.726 244.405 349.013 250.547Z" fill="#FFB0B1"/>
<path opacity="0.1" d="M351.008 261.404L344.302 271.188L340.662 272.619C340.662 272.619 334.81 270.619 335.879 270.047C336.147 269.907 336.566 269.163 337.045 268.136C339.522 268.115 340.805 270.476 340.805 270.476L343.944 269.975C343.944 269.975 348.084 261.833 349.013 261.336C349.943 260.839 349.156 257.62 349.156 257.62V256.8C349.181 256.829 349.203 256.861 349.231 256.89V256.911C350.066 258.179 350.646 259.597 350.94 261.086L351.008 261.404Z" fill="black"/>
<path d="M341.02 270.687C341.02 270.687 339.233 267.403 335.808 268.616C335.808 268.616 333.881 272.551 331.954 273.187C330.027 273.824 330.671 275.971 335.025 275.187C339.379 274.404 345.942 273.756 345.942 273.756L346.228 269.753L350.654 264.112C350.654 264.112 353.292 261.719 349.367 257.008V257.827C349.367 257.827 350.154 261.047 349.224 261.544C348.295 262.041 344.169 270.186 344.169 270.186L341.02 270.687Z" fill="#1D2366"/>
<path opacity="0.1" d="M314.684 212.626C314.746 213.708 314.887 214.784 315.106 215.845C311.081 215.255 307.345 215.548 304.896 215.742V212.554L314.684 212.626Z" fill="black"/>
<path opacity="0.1" d="M351.154 217.48C351.154 217.48 345.435 217.759 338.614 217.816C338.421 216.028 338.378 214.554 338.378 214.554C338.378 214.554 342.232 209.188 349.296 214.983C349.86 215.445 350.357 215.985 350.772 216.586C350.883 216.891 351.01 217.189 351.154 217.48Z" fill="black"/>
<path d="M351.155 216.836C351.155 216.836 326.102 218.049 318.466 215.906C310.831 213.763 303.263 215.62 302.122 215.123C300.982 214.625 301.908 206.838 302.909 204.91C303.91 202.982 309.401 183.483 309.401 183.483L314.684 155.917L320.25 154.382L320.643 154.271L330.342 151.596L337.449 149.632C337.449 149.632 351.58 204.838 350.368 208.909C349.928 210.468 349.857 212.108 350.161 213.699C350.346 214.786 350.68 215.841 351.155 216.836Z" fill="#1D2366"/>
<path d="M296.267 137.065C296.267 137.065 291.262 142.431 295.051 145.421C298.841 148.412 301.332 145.708 301.332 145.708L296.267 137.065Z" fill="#C7DAF5"/>
<path opacity="0.1" d="M296.267 137.065C296.267 137.065 291.262 142.431 295.051 145.421C298.841 148.412 301.332 145.708 301.332 145.708L296.267 137.065Z" fill="black"/>
<path d="M336.702 101.787C336.702 101.787 336.115 102.345 335.232 103.168C333.974 104.345 332.112 106.065 330.46 107.507C328.172 109.499 326.285 110.962 326.96 109.714C327.636 108.466 327.507 106.291 327.171 104.255C327.146 104.119 327.125 103.983 327.1 103.851C326.821 102.356 326.452 100.88 325.995 99.4296C325.995 99.4296 329.691 94.6505 331.736 92.7653C332.498 92.0499 333.03 91.7566 333.062 92.2538C333.098 92.9227 333.599 94.4001 334.221 95.9669C334.239 96.017 334.256 96.0635 334.278 96.1136C334.693 97.1867 335.161 98.2885 335.572 99.24C336.201 100.7 336.702 101.787 336.702 101.787Z" fill="#FFB0B1"/>
<path opacity="0.1" d="M334.278 96.1136C333.93 97.9831 333.088 99.7251 331.838 101.157C330.587 102.589 328.976 103.659 327.171 104.255C326.887 102.622 326.494 101.01 325.995 99.4296C325.995 99.4296 332.955 90.433 333.062 92.2538C333.087 92.9442 333.631 94.4752 334.278 96.1136Z" fill="black"/>
<path opacity="0.1" d="M326.478 106.659L327.378 105.389C327.378 105.389 327.975 109.031 330.17 107.425C332.365 105.818 332.473 119.512 332.473 119.512L330.117 154.758L313.093 153.738L313.576 136.707L315.503 128.122L320.268 115.641L323.103 111.517L326.478 106.659Z" fill="black"/>
<path d="M332.473 119.73L330.328 151.599L330.102 154.976L320.611 154.407L320.254 154.386L313.104 153.957L313.587 136.922L315.514 128.337L320.279 115.856L323.114 111.732L326.488 106.856L327.389 105.59C327.389 105.59 327.986 109.231 330.181 107.625L330.228 107.593C332.372 106.233 332.473 119.73 332.473 119.73Z" fill="#1D2366"/>
<path d="M315.753 125.353C315.753 125.353 314.899 127.142 313.183 126.852C311.467 126.563 311.47 133.291 311.47 133.291C311.47 133.291 310.33 134.364 309.544 133.434C308.757 132.504 306.684 135.649 306.684 135.649L293.693 136.221C293.693 136.221 299.473 138.864 298.34 146.863C298.34 146.863 317.966 145.647 318.609 143.79C319.253 141.934 315.753 125.353 315.753 125.353Z" fill="white"/>
<path opacity="0.03" d="M315.753 125.353C315.753 125.353 314.899 127.142 313.183 126.852C311.467 126.563 311.47 133.291 311.47 133.291C311.47 133.291 310.33 134.364 309.544 133.434C308.757 132.504 306.684 135.649 306.684 135.649L293.693 136.221C293.693 136.221 299.473 138.864 298.34 146.863C298.34 146.863 317.966 145.647 318.609 143.79C319.253 141.934 315.753 125.353 315.753 125.353Z" fill="black"/>
<path d="M277.999 140.424L281.424 143.35L309.615 149.278L306.119 145.708L277.999 140.424Z" fill="white"/>
<path d="M326.531 107.786C326.063 108.501 324.722 112.164 323.603 115.362C322.67 118.027 321.891 120.37 321.891 120.37C321.891 120.37 320.071 132.225 319.142 134.368C318.212 136.511 318.717 144.867 318.717 144.867L315.253 165.504C315.253 165.504 313.683 176.146 311.259 182.502C308.868 188.759 306.205 191.692 306.122 191.785C307.195 190.333 313.04 161.737 313.04 161.737L314.97 125.672C314.97 125.672 315.253 122.245 315.539 119.315C315.824 116.385 321.616 112.386 321.616 112.386L327.2 104.441C327.761 105.192 327.385 106.502 326.531 107.786Z" fill="white"/>
<path d="M311.971 154.135C311.971 154.135 303.749 153.778 299.766 148.991C295.784 144.205 308.972 147.081 308.972 147.081L312.4 147.868L311.971 154.135Z" fill="#FFB0B1"/>
<path opacity="0.1" d="M350.368 208.913C349.928 210.472 349.857 212.112 350.161 213.703C341.192 214.339 331.597 211.914 331.597 211.914C329.809 213.559 325.101 215.985 325.101 215.985L322.535 184.148C320.894 179.855 320.25 157.366 320.25 157.366C320.25 157.366 320.397 156.189 320.608 154.425C320.608 154.382 320.608 154.336 320.626 154.293C321.265 149.367 322.535 140.12 323.157 138.872C324.015 137.155 320.518 132.586 320.518 132.586L322.109 119.011L322.302 117.373C325.655 115.874 328.226 111.088 328.226 111.088L330.199 107.628C332.344 106.251 332.455 119.748 332.455 119.748L330.31 151.617L337.417 149.653C337.417 149.653 351.58 204.842 350.368 208.913Z" fill="black"/>
<path d="M359.573 211.113C349.796 215.97 332.026 211.47 332.026 211.47C330.238 213.116 325.53 215.541 325.53 215.541L322.96 183.704C321.323 179.412 320.679 156.922 320.679 156.922C320.679 156.922 322.745 140.141 323.603 138.428C323.854 137.927 323.732 137.183 323.435 136.382C321.977 132.568 321.44 128.463 321.87 124.402L322.556 118.568L322.745 116.933C326.102 115.43 328.673 110.644 328.673 110.644L330.46 107.51L333.749 101.737L335.307 99.0039L335.572 99.2436L337.592 101.075C337.592 101.075 338.45 101.791 339.737 102.864C342.536 105.225 347.372 109.381 349.868 111.925C352.063 114.164 352.756 122.874 352.956 129.431C353.089 133.749 353.01 137.133 353.01 137.133C350.797 140.778 356.585 170.043 356.585 170.043C357.932 175.699 359.573 211.113 359.573 211.113Z" fill="white"/>
<path opacity="0.03" d="M340.805 110.573C340.805 110.573 334.096 123.354 334.875 128.212C335.654 133.069 337.871 138.568 336.802 139.852C336.434 140.338 335.96 140.733 335.415 141.006C334.869 141.278 334.269 141.421 333.659 141.422C332.587 141.494 329.727 143.493 329.727 143.708C329.727 143.923 327.085 143.923 324.722 144.924C322.359 145.926 318.87 146.495 318.87 146.495C318.87 146.495 312.078 146.28 311.445 146.924C310.813 147.568 310.162 151.42 311.517 154.493C312.872 157.566 314.377 159.859 315.514 160.277C316.65 160.696 323.864 158.278 329.716 157.705C335.568 157.133 341.921 152.493 341.921 152.493C341.921 152.493 348.917 149.989 350.143 145.779C351.369 141.569 348.645 118.428 348.645 118.428C348.645 118.428 346.586 107.643 340.805 110.573Z" fill="black"/>
<path opacity="0.03" d="M339.948 109.499C339.948 109.499 333.238 122.284 334.024 127.138C334.81 131.993 337.02 137.494 335.947 138.782C335.581 139.269 335.107 139.665 334.563 139.937C334.018 140.21 333.418 140.352 332.809 140.353C331.736 140.424 328.876 142.424 328.876 142.638C328.876 142.853 326.234 142.853 323.872 143.851C321.509 144.849 318.02 145.421 318.02 145.421C318.02 145.421 311.227 145.207 310.598 145.851C309.969 146.495 309.311 150.351 310.67 153.42C312.028 156.489 313.53 158.786 314.666 159.204C315.803 159.623 323.017 157.205 328.869 156.636C334.721 156.067 341.074 151.42 341.074 151.42C341.074 151.42 348.066 148.916 349.278 144.71C350.49 140.503 347.78 117.355 347.78 117.355C347.78 117.355 345.728 106.573 339.948 109.499Z" fill="black"/>
<path d="M340.595 109.929C340.595 109.929 333.885 122.713 334.671 127.568C335.458 132.422 337.667 137.924 336.598 139.208C336.232 139.696 335.758 140.092 335.212 140.366C334.667 140.639 334.065 140.781 333.456 140.782C332.383 140.853 329.523 142.853 329.523 143.064C329.523 143.275 326.885 143.279 324.519 144.28C322.152 145.282 318.667 145.851 318.667 145.851C318.667 145.851 311.874 145.636 311.242 146.28C310.609 146.924 309.958 150.78 311.313 153.849C312.668 156.918 314.173 159.215 315.31 159.634C316.447 160.052 323.661 157.634 329.513 157.062C335.365 156.489 341.717 151.85 341.717 151.85C341.717 151.85 348.713 149.346 349.939 145.135C351.165 140.925 348.459 117.784 348.459 117.784C348.459 117.784 346.371 107.017 340.595 109.929Z" fill="white"/>
<path opacity="0.1" d="M340.448 144.219C340.448 144.219 335.086 143.146 336.952 144.935C338.818 146.724 338.807 148.29 341.091 148.219C343.376 148.147 340.448 144.219 340.448 144.219Z" fill="black"/>
<path opacity="0.1" d="M349.51 182.703C349.51 182.703 347.086 184.345 351.723 188.129C356.359 191.914 349.51 182.703 349.51 182.703Z" fill="black"/>
<path opacity="0.1" d="M344.884 196.199C344.884 196.414 344.026 204.069 347.237 205.983C350.447 207.897 344.884 196.199 344.884 196.199Z" fill="black"/>
<path d="M293.915 136.203C291.326 136.292 285.735 137.083 288.635 142.495C291.198 147.285 295.505 144.084 297.929 141.655C297.338 139.39 295.901 137.439 293.915 136.203Z" fill="#FFB0B1"/>
<path d="M297.961 141.612L298.069 141.501L297.961 141.612Z" fill="#FFB0B1"/>
<path opacity="0.1" d="M339.737 103.082C336.991 104.96 334.689 106.545 334.238 106.874C333.009 107.786 330.664 113.141 329.151 115.874C327.947 118.074 324.032 118.639 322.556 118.779L322.745 117.144C326.102 115.641 328.672 110.855 328.672 110.855L335.307 99.215L337.592 101.293C337.592 101.293 338.45 102.009 339.737 103.082Z" fill="black"/>
<path d="M339.737 102.867C336.991 104.745 334.689 106.33 334.238 106.663C333.009 107.571 330.664 112.926 329.151 115.659C327.947 117.859 324.032 118.424 322.556 118.564L322.745 116.929C326.102 115.427 328.672 110.64 328.672 110.64L335.307 99.0004L337.592 101.072C337.592 101.072 338.45 101.78 339.737 102.867Z" fill="#DCE7FF"/>
<path d="M334.453 93.7526C334.454 95.9 333.804 97.9971 332.587 99.7659C331.15 101.857 329.011 103.364 326.559 104.012C324.107 104.661 321.504 104.408 319.222 103.3C316.94 102.192 315.13 100.303 314.122 97.9739C313.113 95.6452 312.972 93.0319 313.724 90.608C314.476 88.1842 316.072 86.1104 318.221 84.7631C320.371 83.4157 322.932 82.884 325.439 83.2644C327.947 83.6449 330.235 84.9122 331.889 86.8365C333.543 88.7608 334.452 91.2146 334.453 93.7526Z" fill="#FFB0B1"/>
<path opacity="0.1" d="M352.956 129.435C351.504 128.541 350.322 127.27 349.535 125.758C348.938 124.577 348.541 123.214 347.522 122.377C346.604 121.626 345.378 121.444 344.234 121.107C340.473 119.995 337.32 116.561 337.202 112.64C337.145 110.794 337.72 108.952 337.459 107.124C337.311 106.09 336.9 105.11 336.265 104.28C335.95 103.883 335.605 103.511 335.232 103.168C334.732 102.696 334.206 102.238 333.749 101.737C333.46 101.427 333.209 101.085 332.998 100.717C332.828 100.417 332.69 100.099 332.587 99.7694C331.872 97.5802 332.522 94.9832 331.736 92.7689L331.693 92.6473C331.396 91.8603 330.792 91.0733 329.952 91.0125C329.112 90.9517 328.394 91.6493 327.593 91.9605C325.916 92.6115 324.107 91.5026 322.71 90.3722C321.312 89.2418 319.735 87.9504 317.959 88.2009C316.783 88.369 315.853 89.1703 314.77 89.5852C314.525 89.68 314.273 89.753 314.016 89.8034C314.932 87.5159 316.616 85.6191 318.779 84.4391C320.941 83.2592 323.447 82.8695 325.865 83.3373C328.283 83.805 330.463 85.1008 332.03 87.0021C333.598 88.9035 334.454 91.2916 334.453 93.7562C334.454 94.5005 334.376 95.2427 334.221 95.9705C334.238 96.0206 334.256 96.0671 334.278 96.1171C334.692 97.1903 335.161 98.2921 335.572 99.2436L337.592 101.075C337.592 101.075 338.45 101.791 339.736 102.864C342.536 105.225 347.372 109.381 349.867 111.925C352.062 114.171 352.749 122.878 352.956 129.435Z" fill="black"/>
<path d="M314.645 83.0497C315.156 82.0088 315.41 80.8426 316.021 79.8553C316.919 78.4244 318.484 77.5087 320.093 76.9542C324.293 75.5055 333.17 73.4021 335.822 76.9542C336.344 77.6696 336.777 78.4638 337.499 78.9574C338.049 79.333 338.714 79.494 339.318 79.7766C341.009 80.5707 342.089 82.3021 342.664 84.0692C343.24 85.8364 343.412 87.7323 343.833 89.553C344.373 91.8889 345.32 94.1032 346.264 96.3032C347.376 98.9002 348.556 101.594 350.701 103.429C353.628 105.933 354.275 109.478 356.992 112.225C360.21 115.488 360.106 120.871 358.447 125.146C358.229 125.708 357.982 126.294 358.068 126.892C358.154 127.489 358.597 128.033 359.016 128.509L360.774 130.494C356.613 131.499 351.905 129.324 349.968 125.507C349.371 124.327 348.974 122.967 347.952 122.127C347.036 121.376 345.807 121.197 344.666 120.861C340.906 119.744 337.753 116.307 337.635 112.386C337.577 110.544 338.153 108.702 337.892 106.877C337.747 105.836 337.334 104.85 336.694 104.016C335.711 102.731 334.228 101.869 333.427 100.438C332.072 98.0453 333.102 94.9367 332.126 92.3683C331.826 91.5813 331.225 90.7943 330.385 90.7335C329.545 90.6727 328.826 91.3702 328.022 91.6815C326.349 92.3325 324.54 91.2272 323.142 90.0932C321.745 88.9592 320.168 87.6714 318.388 87.9254C317.212 88.09 316.286 88.8913 315.203 89.3098C314.402 89.6174 312.779 89.8929 312.078 89.2168C310.598 87.8539 314.026 84.3232 314.645 83.0497Z" fill="#591D4B"/>
<path opacity="0.1" d="M350.961 124.327C350.361 123.146 349.968 121.787 348.945 120.95C348.03 120.199 346.8 120.016 345.656 119.68C341.899 118.568 338.746 115.13 338.625 111.209C338.568 109.367 339.143 107.521 338.886 105.697C338.736 104.662 338.324 103.683 337.688 102.853C336.702 101.569 335.218 100.707 334.421 99.2758C333.066 96.8862 334.095 93.7777 333.116 91.2057C332.819 90.4223 332.215 89.6353 331.379 89.5709C330.542 89.5065 329.816 90.2112 329.016 90.5225C327.343 91.1735 325.53 90.0646 324.136 88.9342C322.742 87.8038 321.158 86.5124 319.381 86.7628C318.205 86.931 317.276 87.7323 316.196 88.1472C315.396 88.4548 313.769 88.7339 313.068 88.0578C311.596 86.6269 315.024 83.1034 315.639 81.8371C316.15 80.7925 316.404 79.6299 317.019 78.6426C317.051 78.589 317.086 78.5353 317.122 78.4817C316.662 78.8629 316.265 79.3144 315.946 79.8195C315.335 80.8068 315.081 81.9658 314.57 83.014C313.951 84.2803 310.523 87.8145 312 89.2347C312.714 89.9143 314.323 89.6353 315.124 89.3277C316.196 88.9091 317.133 88.1079 318.309 87.9433C320.096 87.6893 321.669 88.9807 323.064 90.1111C324.458 91.2415 326.281 92.3504 327.947 91.6993C328.748 91.3881 329.448 90.687 330.306 90.7514C331.164 90.8158 331.736 91.5992 332.047 92.3862C333.023 94.9546 331.993 98.0631 333.348 100.456C334.149 101.862 335.633 102.742 336.616 104.033C337.255 104.868 337.668 105.854 337.813 106.895C338.074 108.72 337.499 110.562 337.556 112.404C337.674 116.339 340.827 119.762 344.588 120.878C345.721 121.215 346.958 121.393 347.873 122.145C348.899 122.985 349.303 124.345 349.889 125.525C351.827 129.342 356.535 131.517 360.696 130.512L359.866 129.574C356.259 129.628 352.609 127.575 350.961 124.327Z" fill="black"/>
<path opacity="0.1" d="M326.317 108.001C325.848 108.716 324.508 112.379 323.389 115.577C322.342 115.169 321.391 112.569 321.391 112.569L326.974 104.62C327.546 105.407 327.171 106.713 326.317 108.001Z" fill="black"/>
<path d="M326.531 107.786C326.063 108.501 324.722 112.164 323.603 115.362C322.556 114.958 321.605 112.354 321.605 112.354L327.189 104.409C327.761 105.192 327.386 106.502 326.531 107.786Z" fill="#DCE7FF"/>
<path d="M294.065 144.33L290.969 134.561C290.932 134.447 290.918 134.326 290.928 134.207C290.938 134.087 290.972 133.97 291.027 133.864C291.082 133.757 291.158 133.662 291.25 133.585C291.342 133.507 291.448 133.449 291.562 133.413C291.793 133.341 292.042 133.363 292.256 133.474C292.471 133.585 292.632 133.777 292.706 134.007L295.802 143.765L295.495 145.808L294.065 144.33Z" fill="#BE8B87"/>
<path opacity="0.1" d="M291.262 133.703C291.493 133.63 291.743 133.651 291.958 133.762C292.173 133.874 292.336 134.066 292.409 134.296L295.505 144.055L295.273 145.586L295.498 145.822L295.806 143.779L292.692 134.021C292.618 133.791 292.456 133.6 292.242 133.488C292.028 133.377 291.778 133.355 291.548 133.427C291.354 133.49 291.187 133.616 291.073 133.785C291.133 133.752 291.197 133.725 291.262 133.703Z" fill="white"/>
<path d="M294.065 144.33L295.802 143.779L295.548 145.454L295.495 145.822L294.987 145.293L294.065 144.33Z" fill="#EFC8C4"/>
<path d="M294.987 145.293C295.017 145.254 295.055 145.223 295.098 145.2C295.123 145.184 295.152 145.175 295.182 145.175C295.211 145.175 295.241 145.184 295.266 145.2C295.29 145.229 295.31 145.262 295.326 145.296C295.35 145.336 295.382 145.369 295.421 145.395C295.459 145.42 295.503 145.437 295.548 145.443L295.494 145.801L294.987 145.293Z" fill="#727A9C"/>
<path d="M290.951 138.031C290.951 138.031 297.16 137.995 295.698 140.639C294.236 143.282 291.952 143.601 291.952 143.601L290.951 138.031Z" fill="#FFB0B1"/>
<path d="M258.944 15.2675H258.653C247.08 15.2675 236.845 21.355 230.957 30.3377C225.07 21.355 214.835 15.2675 203.262 15.2675H202.971C194.285 15.3498 185.984 18.8359 179.87 24.9684C173.756 31.1008 170.323 39.384 170.318 48.0179C170.318 58.7393 175.042 73.9522 184.254 86.4702C201.803 110.323 230.957 131.191 230.957 131.191C230.957 131.191 260.111 110.326 277.657 86.4702C286.872 73.9522 291.592 58.7393 291.592 48.0179C291.588 39.3847 288.156 31.1021 282.043 24.9697C275.929 18.8374 267.629 15.3508 258.944 15.2675ZM254.782 88.3053C253.464 88.3003 252.179 87.8992 251.094 87.1548C250.009 86.4104 249.177 85.3573 248.705 84.1339H241.786C241.33 84.1311 240.887 83.9869 240.518 83.7215C240.148 83.4561 239.872 83.0827 239.726 82.6535L237.601 76.2884L230.876 99.6474C230.745 100.097 230.471 100.492 230.095 100.774C229.718 101.055 229.26 101.208 228.789 101.209H228.654C228.162 101.185 227.694 100.995 227.327 100.669C226.96 100.343 226.716 99.9026 226.637 99.42L219.706 57.9837L214.641 82.5031C214.525 82.9689 214.255 83.3826 213.875 83.6782C213.494 83.9738 213.025 84.1342 212.543 84.1339H202.796C202.504 84.1462 202.212 84.0996 201.939 83.9969C201.665 83.8943 201.415 83.7376 201.204 83.5365C200.993 83.3353 200.825 83.0938 200.71 82.8264C200.596 82.5591 200.537 82.2714 200.537 81.9807C200.537 81.69 200.596 81.4024 200.71 81.135C200.825 80.8676 200.993 80.6261 201.204 80.425C201.415 80.2238 201.665 80.0672 201.939 79.9645C202.212 79.8619 202.504 79.8153 202.796 79.8276H210.836L218.011 46.8613C218.129 46.3739 218.413 45.9423 218.816 45.6403C219.218 45.3383 219.714 45.1846 220.218 45.2056C220.722 45.2265 221.202 45.4208 221.578 45.7551C221.954 46.0895 222.201 46.5432 222.277 47.0387L229.356 89.3076L235.383 68.4083C235.508 67.9681 235.773 67.5801 236.139 67.3022C236.505 67.0243 236.951 66.8713 237.411 66.8662H237.454C237.909 66.8664 238.354 67.0096 238.723 67.2754C239.092 67.5412 239.367 67.9161 239.509 68.3466L243.353 79.8391H248.62C248.994 78.7082 249.676 77.7022 250.589 76.932C251.502 76.1618 252.612 75.6574 253.795 75.4746C254.979 75.2917 256.19 75.4374 257.296 75.8956C258.401 76.3539 259.358 77.1068 260.06 78.0713C260.762 79.0359 261.183 80.1745 261.275 81.3615C261.367 82.5485 261.128 83.7378 260.583 84.7981C260.038 85.8584 259.209 86.7485 258.188 87.3701C257.166 87.9917 255.992 88.3207 254.794 88.3207L254.782 88.3053Z" fill="#FF5348"/>
<defs>
<linearGradient id="paint0_linear" x1="127.065" y1="277.442" x2="127.065" y2="10.8094" gradientUnits="userSpaceOnUse">
<stop stop-color="#808080" stop-opacity="0.25"/>
<stop offset="0.54" stop-color="#808080" stop-opacity="0.12"/>
<stop offset="1" stop-color="#808080" stop-opacity="0.1"/>
</linearGradient>
<linearGradient id="paint1_linear" x1="79795.5" y1="166083" x2="79795.5" y2="53094.5" gradientUnits="userSpaceOnUse">
<stop stop-color="#808080" stop-opacity="0.25"/>
<stop offset="0.54" stop-color="#808080" stop-opacity="0.12"/>
<stop offset="1" stop-color="#808080" stop-opacity="0.1"/>
</linearGradient>
</defs>
</svg>
